solid Untitled-5a3f6c82
facet normal 0.0 0.0 -1.0
  outer loop
    vertex 58.164976876232956 154.0951282669559 0.0
    vertex 57.531205101464636 139.09700824569717 0.0
    vertex 56.860821008891676 146.63778707485085 0.0
  endloop
endfacet
facet normal 0.0 0.0 -1.0
  outer loop
    vertex 57.531205101464636 139.09700824569717 0.0
    vertex 58.164976876232956 154.0951282669559 0.0
    vertex 60.13044358590507 131.98668339497544 0.0
  endloop
endfacet
facet normal 0.0 0.0 -1.0
  outer loop
    vertex 60.13044358590507 131.98668339497544 0.0
    vertex 58.164976876232956 154.0951282669559 0.0
    vertex 59.83531338153604 145.2786381548557 0.0
  endloop
endfacet
facet normal 0.0 0.0 -1.0
  outer loop
    vertex 60.13044358590507 131.98668339497544 0.0
    vertex 59.83531338153604 145.2786381548557 0.0
    vertex 60.75611772992694 138.5540264776535 0.0
  endloop
endfacet
facet normal 0.0 0.0 -1.0
  outer loop
    vertex 61.35479663634863 160.9608263436093 0.0
    vertex 59.83531338153604 145.2786381548557 0.0
    vertex 58.164976876232956 154.0951282669559 0.0
  endloop
endfacet
facet normal 0.0 0.0 -1.0
  outer loop
    vertex 59.83531338153604 145.2786381548557 0.0
    vertex 61.35479663634863 160.9608263436093 0.0
    vertex 60.68634225344472 152.0124359478071 0.0
  endloop
endfacet
facet normal 0.0 0.0 -1.0
  outer loop
    vertex 60.68634225344472 152.0124359478071 0.0
    vertex 61.35479663634863 160.9608263436093 0.0
    vertex 63.251208134424125 158.29652266504513 0.0
  endloop
endfacet
facet normal 0.0 0.0 -1.0
  outer loop
    vertex 63.251208134424125 158.29652266504513 0.0
    vertex 61.35479663634863 160.9608263436093 0.0
    vertex 66.21289934401322 166.7669953269898 0.0
  endloop
endfacet
facet normal 0.0 0.0 -1.0
  outer loop
    vertex 63.251208134424125 158.29652266504513 0.0
    vertex 66.21289934401322 166.7669953269898 0.0
    vertex 67.35511965332677 163.70264818173433 0.0
  endloop
endfacet
facet normal 0.0 0.0 -1.0
  outer loop
    vertex 67.35511965332677 163.70264818173433 0.0
    vertex 66.21289934401322 166.7669953269898 0.0
    vertex 72.40821332809372 171.11795439602778 0.0
  endloop
endfacet
facet normal 0.0 0.0 -1.0
  outer loop
    vertex 67.35511965332677 163.70264818173433 0.0
    vertex 72.40821332809372 171.11795439602778 0.0
    vertex 72.71840202217389 167.86239397795708 0.0
  endloop
endfacet
facet normal 0.0 0.0 -1.0
  outer loop
    vertex 72.71840202217389 167.86239397795708 0.0
    vertex 72.40821332809372 171.11795439602778 0.0
    vertex 79.51853817881543 173.71719288046828 0.0
  endloop
endfacet
facet normal 0.0 0.0 -1.0
  outer loop
    vertex 72.71840202217389 167.86239397795708 0.0
    vertex 79.51853817881543 173.71719288046828 0.0
    vertex 78.97555641077176 170.49228025200588 0.0
  endloop
endfacet
facet normal 0.0 0.0 -1.0
  outer loop
    vertex 78.97555641077176 170.49228025200588 0.0
    vertex 79.51853817881543 173.71719288046828 0.0
    vertex 85.70016808797394 171.4130846003968 0.0
  endloop
endfacet
facet normal 0.0 0.0 -1.0
  outer loop
    vertex 85.70016808797394 171.4130846003968 0.0
    vertex 79.51853817881543 173.71719288046828 0.0
    vertex 87.0593170079691 174.38757697304123 0.0
  endloop
endfacet
facet normal 0.0 0.0 -1.0
  outer loop
    vertex 85.70016808797394 171.4130846003968 0.0
    vertex 87.0593170079691 174.38757697304123 0.0
    vertex 92.43396588092536 170.5620557284881 0.0
  endloop
endfacet
facet normal 0.0 0.0 -1.0
  outer loop
    vertex 92.43396588092536 170.5620557284881 0.0
    vertex 87.0593170079691 174.38757697304123 0.0
    vertex 94.51665820007415 173.08342110569993 0.0
  endloop
endfacet
facet normal 0.0 0.0 -1.0
  outer loop
    vertex 92.43396588092536 170.5620557284881 0.0
    vertex 94.51665820007415 173.08342110569993 0.0
    vertex 109.56093310716771 135.3288416508827 0.0
  endloop
endfacet
facet normal 0.0 0.0 -1.0
  outer loop
    vertex 109.56093310716771 135.3288416508827 0.0
    vertex 94.51665820007415 173.08342110569993 0.0
    vertex 112.86103268258975 135.3457840375382 0.0
  endloop
endfacet
facet normal 0.0 0.0 -1.0
  outer loop
    vertex 60.13044358590507 131.98668339497544 0.0
    vertex 127.0593170079691 79.38757697304125 0.0
    vertex 47.0593170079691 79.38757697304125 0.0
  endloop
endfacet
facet normal 0.0 0.0 -1.0
  outer loop
    vertex 127.0593170079691 79.38757697304125 0.0
    vertex 60.13044358590507 131.98668339497544 0.0
    vertex 67.54574980019851 126.9335897202085 0.0
  endloop
endfacet
facet normal 0.0 0.0 -1.0
  outer loop
    vertex 67.54574980019851 126.9335897202085 0.0
    vertex 60.13044358590507 131.98668339497544 0.0
    vertex 63.38600400397572 132.29687208905563 0.0
  endloop
endfacet
facet normal 0.0 0.0 -1.0
  outer loop
    vertex 63.38600400397572 132.29687208905563 0.0
    vertex 60.13044358590507 131.98668339497544 0.0
    vertex 60.75611772992694 138.5540264776535 0.0
  endloop
endfacet
facet normal 0.0 0.0 -1.0
  outer loop
    vertex 127.0593170079691 79.38757697304125 0.0
    vertex 67.54574980019851 126.9335897202085 0.0
    vertex 72.95187531688768 122.82967820130587 0.0
  endloop
endfacet
facet normal 0.0 0.0 -1.0
  outer loop
    vertex 127.0593170079691 79.38757697304125 0.0
    vertex 72.95187531688768 122.82967820130587 0.0
    vertex 79.23596203412572 120.26481232032647 0.0
  endloop
endfacet
facet normal 0.0 0.0 -1.0
  outer loop
    vertex 127.0593170079691 79.38757697304125 0.0
    vertex 79.23596203412572 120.26481232032647 0.0
    vertex 85.96975982707714 119.41378344841779 0.0
  endloop
endfacet
facet normal 0.0 0.0 -1.0
  outer loop
    vertex 127.0593170079691 79.38757697304125 0.0
    vertex 85.96975982707714 119.41378344841779 0.0
    vertex 92.69437150427933 120.33458779680869 0.0
  endloop
endfacet
facet normal 0.0 0.0 -1.0
  outer loop
    vertex 127.0593170079691 79.38757697304125 0.0
    vertex 92.69437150427933 120.33458779680869 0.0
    vertex 98.95152589287719 122.96447407085746 0.0
  endloop
endfacet
facet normal 0.0 0.0 -1.0
  outer loop
    vertex 127.0593170079691 79.38757697304125 0.0
    vertex 98.95152589287719 122.96447407085746 0.0
    vertex 104.31480826172431 127.12421986708026 0.0
  endloop
endfacet
facet normal 0.0 0.0 -1.0
  outer loop
    vertex 127.0593170079691 79.38757697304125 0.0
    vertex 104.31480826172431 127.12421986708026 0.0
    vertex 108.41871978062697 132.53034538376946 0.0
  endloop
endfacet
facet normal 0.0 0.0 -1.0
  outer loop
    vertex 127.0593170079691 79.38757697304125 0.0
    vertex 108.41871978062697 132.53034538376946 0.0
    vertex 109.56093310716771 135.3288416508827 0.0
  endloop
endfacet
facet normal 0.0 0.0 -1.0
  outer loop
    vertex 127.0593170079691 79.38757697304125 0.0
    vertex 109.56093310716771 135.3288416508827 0.0
    vertex 112.86103268258975 135.3457840375382 0.0
  endloop
endfacet
facet normal -0.0 -0.0 1.0
  outer loop
    vertex 57.531205101464636 139.09700824569717 45.0
    vertex 58.164976876232956 154.0951282669559 45.0
    vertex 56.860821008891676 146.63778707485085 45.0
  endloop
endfacet
facet normal -0.0 -0.0 1.0
  outer loop
    vertex 58.164976876232956 154.0951282669559 45.0
    vertex 57.531205101464636 139.09700824569717 45.0
    vertex 60.13044358590507 131.98668339497544 45.0
  endloop
endfacet
facet normal -0.0 -0.0 1.0
  outer loop
    vertex 58.164976876232956 154.0951282669559 45.0
    vertex 60.13044358590507 131.98668339497544 45.0
    vertex 59.83531338153604 145.2786381548557 45.0
  endloop
endfacet
facet normal -0.0 -0.0 1.0
  outer loop
    vertex 59.83531338153604 145.2786381548557 45.0
    vertex 60.13044358590507 131.98668339497544 45.0
    vertex 60.75611772992694 138.5540264776535 45.0
  endloop
endfacet
facet normal -0.0 -0.0 1.0
  outer loop
    vertex 60.75611772992694 138.5540264776535 45.0
    vertex 60.13044358590507 131.98668339497544 45.0
    vertex 64.48140265494307 125.79136941089497 45.0
  endloop
endfacet
facet normal -0.0 -0.0 1.0
  outer loop
    vertex 60.75611772992694 138.5540264776535 45.0
    vertex 64.48140265494307 125.79136941089497 45.0
    vertex 63.38600400397572 132.29687208905563 45.0
  endloop
endfacet
facet normal -0.0 -0.0 1.0
  outer loop
    vertex 63.38600400397572 132.29687208905563 45.0
    vertex 64.48140265494307 125.79136941089497 45.0
    vertex 67.54574980019851 126.9335897202085 45.0
  endloop
endfacet
facet normal -0.0 -0.0 1.0
  outer loop
    vertex 67.54574980019851 126.9335897202085 45.0
    vertex 64.48140265494307 125.79136941089497 45.0
    vertex 70.28757163832351 120.93326670323039 45.0
  endloop
endfacet
facet normal -0.0 -0.0 1.0
  outer loop
    vertex 67.54574980019851 126.9335897202085 45.0
    vertex 70.28757163832351 120.93326670323039 45.0
    vertex 72.95187531688768 122.82967820130587 45.0
  endloop
endfacet
facet normal -0.0 -0.0 1.0
  outer loop
    vertex 72.95187531688768 122.82967820130587 45.0
    vertex 70.28757163832351 120.93326670323039 45.0
    vertex 77.15326971497694 117.7434469431147 45.0
  endloop
endfacet
facet normal -0.0 -0.0 1.0
  outer loop
    vertex 72.95187531688768 122.82967820130587 45.0
    vertex 77.15326971497694 117.7434469431147 45.0
    vertex 79.23596203412572 120.26481232032647 45.0
  endloop
endfacet
facet normal -0.0 -0.0 1.0
  outer loop
    vertex 79.23596203412572 120.26481232032647 45.0
    vertex 77.15326971497694 117.7434469431147 45.0
    vertex 84.61061090708198 116.43929107577341 45.0
  endloop
endfacet
facet normal -0.0 -0.0 1.0
  outer loop
    vertex 79.23596203412572 120.26481232032647 45.0
    vertex 84.61061090708198 116.43929107577341 45.0
    vertex 85.96975982707714 119.41378344841779 45.0
  endloop
endfacet
facet normal -0.0 -0.0 1.0
  outer loop
    vertex 85.96975982707714 119.41378344841779 45.0
    vertex 84.61061090708198 116.43929107577341 45.0
    vertex 92.15138973623564 117.1096751683464 45.0
  endloop
endfacet
facet normal -0.0 -0.0 1.0
  outer loop
    vertex 85.96975982707714 119.41378344841779 45.0
    vertex 92.15138973623564 117.1096751683464 45.0
    vertex 92.69437150427933 120.33458779680869 45.0
  endloop
endfacet
facet normal -0.0 -0.0 1.0
  outer loop
    vertex 92.69437150427933 120.33458779680869 45.0
    vertex 92.15138973623564 117.1096751683464 45.0
    vertex 99.26171458695737 119.70891365278682 45.0
  endloop
endfacet
facet normal -0.0 -0.0 1.0
  outer loop
    vertex 92.69437150427933 120.33458779680869 45.0
    vertex 99.26171458695737 119.70891365278682 45.0
    vertex 98.95152589287719 122.96447407085746 45.0
  endloop
endfacet
facet normal -0.0 -0.0 1.0
  outer loop
    vertex 98.95152589287719 122.96447407085746 45.0
    vertex 99.26171458695737 119.70891365278682 45.0
    vertex 104.31480826172431 127.12421986708026 45.0
  endloop
endfacet
facet normal -0.0 -0.0 1.0
  outer loop
    vertex 104.31480826172431 127.12421986708026 45.0
    vertex 99.26171458695737 119.70891365278682 45.0
    vertex 105.45702857103792 124.05987272182482 45.0
  endloop
endfacet
facet normal -0.0 -0.0 1.0
  outer loop
    vertex 104.31480826172431 127.12421986708026 45.0
    vertex 105.45702857103792 124.05987272182482 45.0
    vertex 108.41871978062697 132.53034538376946 45.0
  endloop
endfacet
facet normal -0.0 -0.0 1.0
  outer loop
    vertex 108.41871978062697 132.53034538376946 45.0
    vertex 105.45702857103792 124.05987272182482 45.0
    vertex 110.3151312787025 129.86604170520525 45.0
  endloop
endfacet
facet normal -0.0 -0.0 1.0
  outer loop
    vertex 108.41871978062697 132.53034538376946 45.0
    vertex 110.3151312787025 129.86604170520525 45.0
    vertex 109.56093310716771 135.3288416508827 45.0
  endloop
endfacet
facet normal -0.0 -0.0 1.0
  outer loop
    vertex 59.83531338153604 145.2786381548557 45.0
    vertex 61.35479663634863 160.9608263436093 45.0
    vertex 58.164976876232956 154.0951282669559 45.0
  endloop
endfacet
facet normal -0.0 -0.0 1.0
  outer loop
    vertex 61.35479663634863 160.9608263436093 45.0
    vertex 59.83531338153604 145.2786381548557 45.0
    vertex 60.68634225344472 152.0124359478071 45.0
  endloop
endfacet
facet normal -0.0 -0.0 1.0
  outer loop
    vertex 61.35479663634863 160.9608263436093 45.0
    vertex 60.68634225344472 152.0124359478071 45.0
    vertex 63.251208134424125 158.29652266504513 45.0
  endloop
endfacet
facet normal -0.0 -0.0 1.0
  outer loop
    vertex 61.35479663634863 160.9608263436093 45.0
    vertex 63.251208134424125 158.29652266504513 45.0
    vertex 66.21289934401322 166.7669953269898 45.0
  endloop
endfacet
facet normal -0.0 -0.0 1.0
  outer loop
    vertex 66.21289934401322 166.7669953269898 45.0
    vertex 63.251208134424125 158.29652266504513 45.0
    vertex 67.35511965332677 163.70264818173433 45.0
  endloop
endfacet
facet normal -0.0 -0.0 1.0
  outer loop
    vertex 66.21289934401322 166.7669953269898 45.0
    vertex 67.35511965332677 163.70264818173433 45.0
    vertex 72.40821332809372 171.11795439602778 45.0
  endloop
endfacet
facet normal -0.0 -0.0 1.0
  outer loop
    vertex 72.40821332809372 171.11795439602778 45.0
    vertex 67.35511965332677 163.70264818173433 45.0
    vertex 72.71840202217389 167.86239397795708 45.0
  endloop
endfacet
facet normal -0.0 -0.0 1.0
  outer loop
    vertex 72.40821332809372 171.11795439602778 45.0
    vertex 72.71840202217389 167.86239397795708 45.0
    vertex 79.51853817881543 173.71719288046828 45.0
  endloop
endfacet
facet normal -0.0 -0.0 1.0
  outer loop
    vertex 79.51853817881543 173.71719288046828 45.0
    vertex 72.71840202217389 167.86239397795708 45.0
    vertex 78.97555641077176 170.49228025200588 45.0
  endloop
endfacet
facet normal -0.0 -0.0 1.0
  outer loop
    vertex 79.51853817881543 173.71719288046828 45.0
    vertex 78.97555641077176 170.49228025200588 45.0
    vertex 85.70016808797394 171.4130846003968 45.0
  endloop
endfacet
facet normal -0.0 -0.0 1.0
  outer loop
    vertex 79.51853817881543 173.71719288046828 45.0
    vertex 85.70016808797394 171.4130846003968 45.0
    vertex 87.0593170079691 174.38757697304123 45.0
  endloop
endfacet
facet normal -0.0 -0.0 1.0
  outer loop
    vertex 87.0593170079691 174.38757697304123 45.0
    vertex 85.70016808797394 171.4130846003968 45.0
    vertex 92.43396588092536 170.5620557284881 45.0
  endloop
endfacet
facet normal -0.0 -0.0 1.0
  outer loop
    vertex 87.0593170079691 174.38757697304123 45.0
    vertex 92.43396588092536 170.5620557284881 45.0
    vertex 94.51665820007415 173.08342110569993 45.0
  endloop
endfacet
facet normal -0.0 -0.0 1.0
  outer loop
    vertex 94.51665820007415 173.08342110569993 45.0
    vertex 92.43396588092536 170.5620557284881 45.0
    vertex 109.56093310716771 135.3288416508827 45.0
  endloop
endfacet
facet normal -0.0 -0.0 1.0
  outer loop
    vertex 94.51665820007415 173.08342110569993 45.0
    vertex 109.56093310716771 135.3288416508827 45.0
    vertex 112.86103268258975 135.3457840375382 45.0
  endloop
endfacet
facet normal -0.0 -0.0 1.0
  outer loop
    vertex 112.86103268258975 135.3457840375382 45.0
    vertex 109.56093310716771 135.3288416508827 45.0
    vertex 110.3151312787025 129.86604170520525 45.0
  endloop
endfacet
facet normal 0.17226769283773766 0.9850501723284775 0.0
  outer loop
    vertex 87.0593170079691 174.38757697304123 45.0
    vertex 94.51665820007415 173.08342110569993 0.0
    vertex 87.0593170079691 174.38757697304123 0.0
  endloop
endfacet
facet normal 0.17226769283773766 0.9850501723284775 0.0
  outer loop
    vertex 94.51665820007415 173.08342110569993 0.0
    vertex 87.0593170079691 174.38757697304123 45.0
    vertex 94.51665820007415 173.08342110569993 45.0
  endloop
endfacet
facet normal 0.906899241880298 -0.4213475585273287 -1.6093979696453786e-18
  outer loop
    vertex 112.86103268258975 135.3457840375382 5.0
    vertex 110.3151312787025 129.86604170520525 45.0
    vertex 110.3151312787025 129.86604170520525 5.0
  endloop
endfacet
facet normal 0.906899241880298 -0.4213475585273287 -1.6093979696453786e-18
  outer loop
    vertex 110.3151312787025 129.86604170520525 45.0
    vertex 112.86103268258975 135.3457840375382 5.0
    vertex 112.86103268258975 135.3457840375382 45.0
  endloop
endfacet
facet normal 0.7669446268198356 -0.6417132844130494 -1.180584575795744e-18
  outer loop
    vertex 110.3151312787025 129.86604170520525 5.0
    vertex 105.45702857103792 124.05987272182482 45.0
    vertex 105.45702857103792 124.05987272182482 5.0
  endloop
endfacet
facet normal 0.7669446268198356 -0.6417132844130494 -1.180584575795744e-18
  outer loop
    vertex 105.45702857103792 124.05987272182482 45.0
    vertex 110.3151312787025 129.86604170520525 5.0
    vertex 110.3151312787025 129.86604170520525 45.0
  endloop
endfacet
facet normal 0.5747240028775179 -0.8183473104473692 4.2293672867148694e-18
  outer loop
    vertex 105.45702857103792 124.05987272182482 45.0
    vertex 102.35937157899764 121.88439318730582 5.0
    vertex 105.45702857103792 124.05987272182482 5.0
  endloop
endfacet
facet normal 0.5747240028775179 -0.8183473104473692 4.2293672867148694e-18
  outer loop
    vertex 102.35937157899764 121.88439318730582 5.0
    vertex 105.45702857103792 124.05987272182482 45.0
    vertex 99.26171458695737 119.70891365278682 5.0
  endloop
endfacet
facet normal 0.5747240028775179 -0.8183473104473692 4.2293672867148694e-18
  outer loop
    vertex 99.26171458695737 119.70891365278682 5.0
    vertex 105.45702857103792 124.05987272182482 45.0
    vertex 99.26171458695737 119.70891365278682 45.0
  endloop
endfacet
facet normal 0.3433368879154254 -0.9392123196575686 2.127252607198801e-18
  outer loop
    vertex 99.26171458695737 119.70891365278682 45.0
    vertex 92.15138973623564 117.1096751683464 5.0
    vertex 99.26171458695737 119.70891365278682 5.0
  endloop
endfacet
facet normal 0.3433368879154254 -0.9392123196575686 2.127252607198801e-18
  outer loop
    vertex 92.15138973623564 117.1096751683464 5.0
    vertex 99.26171458695737 119.70891365278682 45.0
    vertex 92.15138973623564 117.1096751683464 45.0
  endloop
endfacet
facet normal 0.08855193143293558 -0.9960715614048504 2.290638884893574e-19
  outer loop
    vertex 92.15138973623564 117.1096751683464 45.0
    vertex 84.61061090708198 116.43929107577341 5.0
    vertex 92.15138973623564 117.1096751683464 5.0
  endloop
endfacet
facet normal 0.08855193143293558 -0.9960715614048504 2.290638884893574e-19
  outer loop
    vertex 84.61061090708198 116.43929107577341 5.0
    vertex 92.15138973623564 117.1096751683464 45.0
    vertex 84.61061090708198 116.43929107577341 45.0
  endloop
endfacet
facet normal -0.172267692837735 -0.9850501723284778 -1.0869136404760755e-18
  outer loop
    vertex 84.61061090708198 116.43929107577341 45.0
    vertex 77.15326971497694 117.7434469431147 5.0
    vertex 84.61061090708198 116.43929107577341 5.0
  endloop
endfacet
facet normal -0.172267692837735 -0.9850501723284778 -1.0869136404760755e-18
  outer loop
    vertex 77.15326971497694 117.7434469431147 5.0
    vertex 84.61061090708198 116.43929107577341 45.0
    vertex 77.15326971497694 117.7434469431147 45.0
  endloop
endfacet
facet normal -0.42134755852732947 -0.9068992418802977 2.4436266530548776e-18
  outer loop
    vertex 77.15326971497694 117.7434469431147 45.0
    vertex 70.28757163832351 120.93326670323039 5.0
    vertex 77.15326971497694 117.7434469431147 5.0
  endloop
endfacet
facet normal -0.42134755852732947 -0.9068992418802977 2.4436266530548776e-18
  outer loop
    vertex 70.28757163832351 120.93326670323039 5.0
    vertex 77.15326971497694 117.7434469431147 45.0
    vertex 70.28757163832351 120.93326670323039 45.0
  endloop
endfacet
facet normal -0.6417132844130505 -0.7669446268198346 -1.1805845757956534e-18
  outer loop
    vertex 70.28757163832351 120.93326670323039 45.0
    vertex 64.48140265494307 125.79136941089497 5.0
    vertex 70.28757163832351 120.93326670323039 5.0
  endloop
endfacet
facet normal -0.6417132844130505 -0.7669446268198346 -1.1805845757956534e-18
  outer loop
    vertex 64.48140265494307 125.79136941089497 5.0
    vertex 70.28757163832351 120.93326670323039 45.0
    vertex 64.48140265494307 125.79136941089497 45.0
  endloop
endfacet
facet normal -0.8183473104473652 -0.5747240028775235 -3.172025465036143e-18
  outer loop
    vertex 60.13044358590507 131.98668339497544 45.0
    vertex 64.48140265494307 125.79136941089497 5.0
    vertex 64.48140265494307 125.79136941089497 45.0
  endloop
endfacet
facet normal -0.8183473104473652 -0.5747240028775235 -3.172025465036143e-18
  outer loop
    vertex 64.48140265494307 125.79136941089497 5.0
    vertex 60.13044358590507 131.98668339497544 45.0
    vertex 60.13044358590507 131.98668339497544 5.0
  endloop
endfacet
facet normal -0.9392123196575681 -0.34333688791542655 -3.760862834263968e-18
  outer loop
    vertex 57.531205101464636 139.09700824569717 45.0
    vertex 60.13044358590507 131.98668339497544 5.0
    vertex 60.13044358590507 131.98668339497544 45.0
  endloop
endfacet
facet normal -0.9392123196575681 -0.34333688791542655 -3.760862834263968e-18
  outer loop
    vertex 60.13044358590507 131.98668339497544 5.0
    vertex 57.531205101464636 139.09700824569717 45.0
    vertex 60.13044358590507 131.98668339497544 0.0
  endloop
endfacet
facet normal -0.9392123196575681 -0.34333688791542655 -3.760862834263968e-18
  outer loop
    vertex 60.13044358590507 131.98668339497544 0.0
    vertex 57.531205101464636 139.09700824569717 45.0
    vertex 57.531205101464636 139.09700824569717 0.0
  endloop
endfacet
facet normal -0.9960715614048506 -0.0885519314329326 -0.0
  outer loop
    vertex 56.860821008891676 146.63778707485085 45.0
    vertex 57.531205101464636 139.09700824569717 0.0
    vertex 57.531205101464636 139.09700824569717 45.0
  endloop
endfacet
facet normal -0.9960715614048506 -0.0885519314329326 -0.0
  outer loop
    vertex 57.531205101464636 139.09700824569717 0.0
    vertex 56.860821008891676 146.63778707485085 45.0
    vertex 56.860821008891676 146.63778707485085 0.0
  endloop
endfacet
facet normal -0.9850501723284782 0.17226769283773308 0.0
  outer loop
    vertex 58.164976876232956 154.0951282669559 45.0
    vertex 56.860821008891676 146.63778707485085 0.0
    vertex 56.860821008891676 146.63778707485085 45.0
  endloop
endfacet
facet normal -0.9850501723284782 0.17226769283773308 0.0
  outer loop
    vertex 56.860821008891676 146.63778707485085 0.0
    vertex 58.164976876232956 154.0951282669559 45.0
    vertex 58.164976876232956 154.0951282669559 0.0
  endloop
endfacet
facet normal -0.9068992418802978 0.4213475585273295 0.0
  outer loop
    vertex 61.35479663634863 160.9608263436093 45.0
    vertex 58.164976876232956 154.0951282669559 0.0
    vertex 58.164976876232956 154.0951282669559 45.0
  endloop
endfacet
facet normal -0.9068992418802978 0.4213475585273295 0.0
  outer loop
    vertex 58.164976876232956 154.0951282669559 0.0
    vertex 61.35479663634863 160.9608263436093 45.0
    vertex 61.35479663634863 160.9608263436093 0.0
  endloop
endfacet
facet normal -0.7669446268198367 0.6417132844130483 0.0
  outer loop
    vertex 66.21289934401322 166.7669953269898 45.0
    vertex 61.35479663634863 160.9608263436093 0.0
    vertex 61.35479663634863 160.9608263436093 45.0
  endloop
endfacet
facet normal -0.7669446268198367 0.6417132844130483 0.0
  outer loop
    vertex 61.35479663634863 160.9608263436093 0.0
    vertex 66.21289934401322 166.7669953269898 45.0
    vertex 66.21289934401322 166.7669953269898 0.0
  endloop
endfacet
facet normal -0.5747240028775213 0.8183473104473669 0.0
  outer loop
    vertex 66.21289934401322 166.7669953269898 45.0
    vertex 72.40821332809372 171.11795439602778 0.0
    vertex 66.21289934401322 166.7669953269898 0.0
  endloop
endfacet
facet normal -0.5747240028775213 0.8183473104473669 0.0
  outer loop
    vertex 72.40821332809372 171.11795439602778 0.0
    vertex 66.21289934401322 166.7669953269898 45.0
    vertex 72.40821332809372 171.11795439602778 45.0
  endloop
endfacet
facet normal -0.34333688791543365 0.9392123196575655 0.0
  outer loop
    vertex 72.40821332809372 171.11795439602778 45.0
    vertex 79.51853817881543 173.71719288046828 0.0
    vertex 72.40821332809372 171.11795439602778 0.0
  endloop
endfacet
facet normal -0.34333688791543365 0.9392123196575655 0.0
  outer loop
    vertex 79.51853817881543 173.71719288046828 0.0
    vertex 72.40821332809372 171.11795439602778 45.0
    vertex 79.51853817881543 173.71719288046828 45.0
  endloop
endfacet
facet normal -0.0885519314329326 0.9960715614048506 0.0
  outer loop
    vertex 79.51853817881543 173.71719288046828 45.0
    vertex 87.0593170079691 174.38757697304123 0.0
    vertex 79.51853817881543 173.71719288046828 0.0
  endloop
endfacet
facet normal -0.0885519314329326 0.9960715614048506 0.0
  outer loop
    vertex 87.0593170079691 174.38757697304123 0.0
    vertex 79.51853817881543 173.71719288046828 45.0
    vertex 87.0593170079691 174.38757697304123 45.0
  endloop
endfacet
facet normal 0.0 0.0 -1.0
  outer loop
    vertex 48.30184064259925 84.38757697304125 45.0
    vertex 127.0593170079691 79.38757697304125 45.0
    vertex 47.0593170079691 79.38757697304125 45.0
  endloop
endfacet
facet normal 0.0 0.0 -1.0
  outer loop
    vertex 127.0593170079691 79.38757697304125 45.0
    vertex 48.30184064259925 84.38757697304125 45.0
    vertex 105.6293410336196 84.38757697304125 45.0
  endloop
endfacet
facet normal 0.0 0.0 -1.0
  outer loop
    vertex 127.0593170079691 79.38757697304125 45.0
    vertex 105.6293410336196 84.38757697304125 45.0
    vertex 125.79066625321794 84.38757697304125 45.0
  endloop
endfacet
facet normal 0.0 -1.0 0.0
  outer loop
    vertex 105.6293410336196 84.38757697304125 45.0
    vertex 70.90857036912328 84.38757697304125 5.0
    vertex 91.05745606839841 84.38757697304125 5.0
  endloop
endfacet
facet normal 0.0 -1.0 0.0
  outer loop
    vertex 70.90857036912328 84.38757697304125 5.0
    vertex 105.6293410336196 84.38757697304125 45.0
    vertex 48.30184064259925 84.38757697304125 5.0
  endloop
endfacet
facet normal 0.0 -1.0 0.0
  outer loop
    vertex 48.30184064259925 84.38757697304125 5.0
    vertex 105.6293410336196 84.38757697304125 45.0
    vertex 48.30184064259925 84.38757697304125 45.0
  endloop
endfacet
facet normal 0.0 1.0 0.0
  outer loop
    vertex 47.0593170079691 79.38757697304125 45.0
    vertex 127.0593170079691 79.38757697304125 0.0
    vertex 47.0593170079691 79.38757697304125 0.0
  endloop
endfacet
facet normal 0.0 1.0 0.0
  outer loop
    vertex 127.0593170079691 79.38757697304125 0.0
    vertex 47.0593170079691 79.38757697304125 45.0
    vertex 127.0593170079691 79.38757697304125 45.0
  endloop
endfacet
facet normal 0.0 0.0 -1.0
  outer loop
    vertex 102.35937157899764 121.88439318730582 5.0
    vertex 91.05745606839841 84.38757697304125 5.0
    vertex 70.90857036912328 84.38757697304125 5.0
  endloop
endfacet
facet normal 0.0 0.0 -1.0
  outer loop
    vertex 91.05745606839841 84.38757697304125 5.0
    vertex 102.35937157899764 121.88439318730582 5.0
    vertex 125.79066625321794 84.38757697304125 5.0
  endloop
endfacet
facet normal 0.0 0.0 -1.0
  outer loop
    vertex 125.79066625321794 84.38757697304125 5.0
    vertex 102.35937157899764 121.88439318730582 5.0
    vertex 105.45702857103792 124.05987272182482 5.0
  endloop
endfacet
facet normal 0.0 0.0 -1.0
  outer loop
    vertex 125.79066625321794 84.38757697304125 5.0
    vertex 105.45702857103792 124.05987272182482 5.0
    vertex 110.3151312787025 129.86604170520525 5.0
  endloop
endfacet
facet normal 0.0 0.0 -1.0
  outer loop
    vertex 125.79066625321794 84.38757697304125 5.0
    vertex 110.3151312787025 129.86604170520525 5.0
    vertex 112.86103268258975 135.3457840375382 5.0
  endloop
endfacet
facet normal 0.9704829827855783 -0.24116960862348955 -0.0
  outer loop
    vertex 47.0593170079691 79.38757697304125 0.0
    vertex 48.30184064259925 84.38757697304125 5.0
    vertex 47.0593170079691 79.38757697304125 45.0
  endloop
endfacet
facet normal 0.9704829827855783 -0.24116960862348955 -0.0
  outer loop
    vertex 48.30184064259925 84.38757697304125 5.0
    vertex 47.0593170079691 79.38757697304125 0.0
    vertex 60.13044358590507 131.98668339497544 0.0
  endloop
endfacet
facet normal 0.9704829827855783 -0.24116960862348955 -0.0
  outer loop
    vertex 48.30184064259925 84.38757697304125 5.0
    vertex 60.13044358590507 131.98668339497544 0.0
    vertex 60.13044358590507 131.98668339497544 5.0
  endloop
endfacet
facet normal 0.9704829827855783 -0.24116960862348955 -0.0
  outer loop
    vertex 48.30184064259925 84.38757697304125 45.0
    vertex 47.0593170079691 79.38757697304125 45.0
    vertex 48.30184064259925 84.38757697304125 5.0
  endloop
endfacet
facet normal -0.9692858068035423 -0.24593703407418363 0.0
  outer loop
    vertex 125.79066625321794 84.38757697304125 45.0
    vertex 127.0593170079691 79.38757697304125 0.0
    vertex 127.0593170079691 79.38757697304125 45.0
  endloop
endfacet
facet normal -0.9692858068035423 -0.24593703407418363 0.0
  outer loop
    vertex 127.0593170079691 79.38757697304125 0.0
    vertex 125.79066625321794 84.38757697304125 45.0
    vertex 125.79066625321794 84.38757697304125 5.0
  endloop
endfacet
facet normal -0.9692858068035423 -0.24593703407418363 0.0
  outer loop
    vertex 127.0593170079691 79.38757697304125 0.0
    vertex 125.79066625321794 84.38757697304125 5.0
    vertex 112.86103268258975 135.3457840375382 0.0
  endloop
endfacet
facet normal -0.9692858068035423 -0.24593703407418363 0.0
  outer loop
    vertex 112.86103268258975 135.3457840375382 0.0
    vertex 125.79066625321794 84.38757697304125 5.0
    vertex 112.86103268258975 135.3457840375382 5.0
  endloop
endfacet
facet normal 0.8993707609567153 0.4371867270813913 -6.055665804938897e-17
  outer loop
    vertex 94.51665820007415 173.08342110569993 0.0
    vertex 112.86103268258975 135.3457840375382 5.0
    vertex 112.86103268258975 135.3457840375382 0.0
  endloop
endfacet
facet normal 0.8993707609567153 0.4371867270813913 -6.055665804938897e-17
  outer loop
    vertex 112.86103268258975 135.3457840375382 5.0
    vertex 94.51665820007415 173.08342110569993 0.0
    vertex 112.86103268258975 135.3457840375382 45.0
  endloop
endfacet
facet normal 0.8993707609567153 0.4371867270813913 -6.055665804938897e-17
  outer loop
    vertex 112.86103268258975 135.3457840375382 45.0
    vertex 94.51665820007415 173.08342110569993 0.0
    vertex 94.51665820007415 173.08342110569993 45.0
  endloop
endfacet
facet normal 0.0 0.0 -1.0
  outer loop
    vertex 60.13044358590507 131.98668339497544 5.0
    vertex 70.90857036912328 84.38757697304125 5.0
    vertex 48.30184064259925 84.38757697304125 5.0
  endloop
endfacet
facet normal 0.0 0.0 -1.0
  outer loop
    vertex 70.90857036912328 84.38757697304125 5.0
    vertex 60.13044358590507 131.98668339497544 5.0
    vertex 64.48140265494307 125.79136941089497 5.0
  endloop
endfacet
facet normal 0.0 0.0 -1.0
  outer loop
    vertex 70.90857036912328 84.38757697304125 5.0
    vertex 64.48140265494307 125.79136941089497 5.0
    vertex 70.28757163832351 120.93326670323039 5.0
  endloop
endfacet
facet normal 0.0 0.0 -1.0
  outer loop
    vertex 70.90857036912328 84.38757697304125 5.0
    vertex 70.28757163832351 120.93326670323039 5.0
    vertex 77.15326971497694 117.7434469431147 5.0
  endloop
endfacet
facet normal 0.0 0.0 -1.0
  outer loop
    vertex 70.90857036912328 84.38757697304125 5.0
    vertex 77.15326971497694 117.7434469431147 5.0
    vertex 84.61061090708198 116.43929107577341 5.0
  endloop
endfacet
facet normal 0.0 0.0 -1.0
  outer loop
    vertex 70.90857036912328 84.38757697304125 5.0
    vertex 84.61061090708198 116.43929107577341 5.0
    vertex 92.15138973623564 117.1096751683464 5.0
  endloop
endfacet
facet normal 0.0 0.0 -1.0
  outer loop
    vertex 70.90857036912328 84.38757697304125 5.0
    vertex 92.15138973623564 117.1096751683464 5.0
    vertex 99.26171458695737 119.70891365278682 5.0
  endloop
endfacet
facet normal 0.0 0.0 -1.0
  outer loop
    vertex 70.90857036912328 84.38757697304125 5.0
    vertex 99.26171458695737 119.70891365278682 5.0
    vertex 102.35937157899764 121.88439318730582 5.0
  endloop
endfacet
facet normal 0.0 -1.0 0.0
  outer loop
    vertex 125.79066625321794 84.38757697304125 45.0
    vertex 91.05745606839841 84.38757697304125 5.0
    vertex 125.79066625321794 84.38757697304125 5.0
  endloop
endfacet
facet normal 0.0 -1.0 0.0
  outer loop
    vertex 91.05745606839841 84.38757697304125 5.0
    vertex 125.79066625321794 84.38757697304125 45.0
    vertex 105.6293410336196 84.38757697304125 45.0
  endloop
endfacet
facet normal -0.9258511217550258 0.37788847606795395 1.317289829064351e-32
  outer loop
    vertex 109.56093310716771 135.3288416508827 45.0
    vertex 108.41871978062697 132.53034538376946 0.0
    vertex 108.41871978062697 132.53034538376946 45.0
  endloop
endfacet
facet normal -0.9258511217550258 0.37788847606795395 1.317289829064351e-32
  outer loop
    vertex 108.41871978062697 132.53034538376946 0.0
    vertex 109.56093310716771 135.3288416508827 45.0
    vertex 109.56093310716771 135.3288416508827 0.0
  endloop
endfacet
facet normal -0.8993707609567153 -0.43718672708139156 -7.615995103010048e-34
  outer loop
    vertex 92.43396588092536 170.5620557284881 45.0
    vertex 109.56093310716771 135.3288416508827 0.0
    vertex 109.56093310716771 135.3288416508827 45.0
  endloop
endfacet
facet normal -0.8993707609567153 -0.43718672708139156 -7.615995103010048e-34
  outer loop
    vertex 109.56093310716771 135.3288416508827 0.0
    vertex 92.43396588092536 170.5620557284881 45.0
    vertex 92.43396588092536 170.5620557284881 0.0
  endloop
endfacet
facet normal -0.1253843352513245 -0.9921082443330382 -1.580295617518669e-32
  outer loop
    vertex 92.43396588092536 170.5620557284881 45.0
    vertex 85.70016808797394 171.4130846003968 0.0
    vertex 92.43396588092536 170.5620557284881 0.0
  endloop
endfacet
facet normal -0.1253843352513245 -0.9921082443330382 -1.580295617518669e-32
  outer loop
    vertex 85.70016808797394 171.4130846003968 0.0
    vertex 92.43396588092536 170.5620557284881 45.0
    vertex 85.70016808797394 171.4130846003968 45.0
  endloop
endfacet
facet normal 0.1356645408052743 -0.990754829596149 -1.769821035337432e-32
  outer loop
    vertex 85.70016808797394 171.4130846003968 45.0
    vertex 78.97555641077176 170.49228025200588 0.0
    vertex 85.70016808797394 171.4130846003968 0.0
  endloop
endfacet
facet normal 0.1356645408052743 -0.990754829596149 -1.769821035337432e-32
  outer loop
    vertex 78.97555641077176 170.49228025200588 0.0
    vertex 85.70016808797394 171.4130846003968 45.0
    vertex 78.97555641077176 170.49228025200588 45.0
  endloop
endfacet
facet normal 0.3874681026022494 -0.9218831105220515 -1.8387360743654976e-32
  outer loop
    vertex 78.97555641077176 170.49228025200588 45.0
    vertex 72.71840202217389 167.86239397795708 0.0
    vertex 78.97555641077176 170.49228025200588 0.0
  endloop
endfacet
facet normal 0.3874681026022494 -0.9218831105220515 -1.8387360743654976e-32
  outer loop
    vertex 72.71840202217389 167.86239397795708 0.0
    vertex 78.97555641077176 170.49228025200588 45.0
    vertex 72.71840202217389 167.86239397795708 45.0
  endloop
endfacet
facet normal 0.6128663535281912 -0.7901865809497515 -1.7823442885805903e-32
  outer loop
    vertex 72.71840202217389 167.86239397795708 45.0
    vertex 67.35511965332677 163.70264818173433 0.0
    vertex 72.71840202217389 167.86239397795708 0.0
  endloop
endfacet
facet normal 0.6128663535281912 -0.7901865809497515 -1.7823442885805903e-32
  outer loop
    vertex 67.35511965332677 163.70264818173433 0.0
    vertex 72.71840202217389 167.86239397795708 45.0
    vertex 67.35511965332677 163.70264818173433 45.0
  endloop
endfacet
facet normal 0.7964987752707283 -0.6046401417307902 -1.6044886849921173e-32
  outer loop
    vertex 67.35511965332677 163.70264818173433 0.0
    vertex 63.251208134424125 158.29652266504513 45.0
    vertex 63.251208134424125 158.29652266504513 0.0
  endloop
endfacet
facet normal 0.7964987752707283 -0.6046401417307902 -1.6044886849921173e-32
  outer loop
    vertex 63.251208134424125 158.29652266504513 45.0
    vertex 67.35511965332677 163.70264818173433 0.0
    vertex 67.35511965332677 163.70264818173433 45.0
  endloop
endfacet
facet normal 0.9258511217550246 -0.37788847606795667 -1.3172898290643547e-32
  outer loop
    vertex 63.251208134424125 158.29652266504513 0.0
    vertex 60.68634225344472 152.0124359478071 45.0
    vertex 60.68634225344472 152.0124359478071 0.0
  endloop
endfacet
facet normal 0.9258511217550246 -0.37788847606795667 -1.3172898290643547e-32
  outer loop
    vertex 60.68634225344472 152.0124359478071 45.0
    vertex 63.251208134424125 158.29652266504513 0.0
    vertex 63.251208134424125 158.29652266504513 45.0
  endloop
endfacet
facet normal 0.9921082443330383 -0.12538433525132472 -9.403198482102268e-33
  outer loop
    vertex 60.68634225344472 152.0124359478071 0.0
    vertex 59.83531338153604 145.2786381548557 45.0
    vertex 59.83531338153604 145.2786381548557 0.0
  endloop
endfacet
facet normal 0.9921082443330383 -0.12538433525132472 -9.403198482102268e-33
  outer loop
    vertex 59.83531338153604 145.2786381548557 45.0
    vertex 60.68634225344472 152.0124359478071 0.0
    vertex 60.68634225344472 152.0124359478071 45.0
  endloop
endfacet
facet normal 0.990754829596149 0.13566454080527407 -4.9926862365259414e-33
  outer loop
    vertex 59.83531338153604 145.2786381548557 0.0
    vertex 60.75611772992694 138.5540264776535 45.0
    vertex 60.75611772992694 138.5540264776535 0.0
  endloop
endfacet
facet normal 0.990754829596149 0.13566454080527407 -4.9926862365259414e-33
  outer loop
    vertex 60.75611772992694 138.5540264776535 45.0
    vertex 59.83531338153604 145.2786381548557 0.0
    vertex 59.83531338153604 145.2786381548557 45.0
  endloop
endfacet
facet normal 0.9218831105220523 0.3874681026022473 -2.4193067473448966e-34
  outer loop
    vertex 60.75611772992694 138.5540264776535 0.0
    vertex 63.38600400397572 132.29687208905563 45.0
    vertex 63.38600400397572 132.29687208905563 0.0
  endloop
endfacet
facet normal 0.9218831105220523 0.3874681026022473 -2.4193067473448966e-34
  outer loop
    vertex 63.38600400397572 132.29687208905563 45.0
    vertex 60.75611772992694 138.5540264776535 0.0
    vertex 60.75611772992694 138.5540264776535 45.0
  endloop
endfacet
facet normal 0.7901865809497506 0.6128663535281923 4.525312062730771e-33
  outer loop
    vertex 63.38600400397572 132.29687208905563 0.0
    vertex 67.54574980019851 126.9335897202085 45.0
    vertex 67.54574980019851 126.9335897202085 0.0
  endloop
endfacet
facet normal 0.7901865809497506 0.6128663535281923 4.525312062730771e-33
  outer loop
    vertex 67.54574980019851 126.9335897202085 45.0
    vertex 63.38600400397572 132.29687208905563 0.0
    vertex 63.38600400397572 132.29687208905563 45.0
  endloop
endfacet
facet normal 0.60464014173079 0.7964987752707284 8.984162261552731e-33
  outer loop
    vertex 67.54574980019851 126.9335897202085 45.0
    vertex 72.95187531688768 122.82967820130587 0.0
    vertex 67.54574980019851 126.9335897202085 0.0
  endloop
endfacet
facet normal 0.60464014173079 0.7964987752707284 8.984162261552731e-33
  outer loop
    vertex 72.95187531688768 122.82967820130587 0.0
    vertex 67.54574980019851 126.9335897202085 45.0
    vertex 72.95187531688768 122.82967820130587 45.0
  endloop
endfacet
facet normal 0.37788847606795667 0.9258511217550246 1.2830756649279955e-32
  outer loop
    vertex 72.95187531688768 122.82967820130587 45.0
    vertex 79.23596203412572 120.26481232032647 0.0
    vertex 72.95187531688768 122.82967820130587 0.0
  endloop
endfacet
facet normal 0.37788847606795667 0.9258511217550246 1.2830756649279955e-32
  outer loop
    vertex 79.23596203412572 120.26481232032647 0.0
    vertex 72.95187531688768 122.82967820130587 45.0
    vertex 79.23596203412572 120.26481232032647 45.0
  endloop
endfacet
facet normal 0.1253843352513243 0.9921082443330382 1.5802956175186694e-32
  outer loop
    vertex 79.23596203412572 120.26481232032647 45.0
    vertex 85.96975982707714 119.41378344841779 0.0
    vertex 79.23596203412572 120.26481232032647 0.0
  endloop
endfacet
facet normal 0.1253843352513243 0.9921082443330382 1.5802956175186694e-32
  outer loop
    vertex 85.96975982707714 119.41378344841779 0.0
    vertex 79.23596203412572 120.26481232032647 45.0
    vertex 85.96975982707714 119.41378344841779 45.0
  endloop
endfacet
facet normal -0.1356645408052743 0.990754829596149 1.769821035337432e-32
  outer loop
    vertex 85.96975982707714 119.41378344841779 45.0
    vertex 92.69437150427933 120.33458779680869 0.0
    vertex 85.96975982707714 119.41378344841779 0.0
  endloop
endfacet
facet normal -0.1356645408052743 0.990754829596149 1.769821035337432e-32
  outer loop
    vertex 92.69437150427933 120.33458779680869 0.0
    vertex 85.96975982707714 119.41378344841779 45.0
    vertex 92.69437150427933 120.33458779680869 45.0
  endloop
endfacet
facet normal -0.3874681026022465 0.9218831105220526 1.8387360743654976e-32
  outer loop
    vertex 92.69437150427933 120.33458779680869 45.0
    vertex 98.95152589287719 122.96447407085746 0.0
    vertex 92.69437150427933 120.33458779680869 0.0
  endloop
endfacet
facet normal -0.3874681026022465 0.9218831105220526 1.8387360743654976e-32
  outer loop
    vertex 98.95152589287719 122.96447407085746 0.0
    vertex 92.69437150427933 120.33458779680869 45.0
    vertex 98.95152589287719 122.96447407085746 45.0
  endloop
endfacet
facet normal -0.6128663535281934 0.7901865809497499 1.7823442885805894e-32
  outer loop
    vertex 98.95152589287719 122.96447407085746 45.0
    vertex 104.31480826172431 127.12421986708026 0.0
    vertex 98.95152589287719 122.96447407085746 0.0
  endloop
endfacet
facet normal -0.6128663535281934 0.7901865809497499 1.7823442885805894e-32
  outer loop
    vertex 104.31480826172431 127.12421986708026 0.0
    vertex 98.95152589287719 122.96447407085746 45.0
    vertex 104.31480826172431 127.12421986708026 45.0
  endloop
endfacet
facet normal -0.7964987752707274 0.6046401417307912 1.6044886849921184e-32
  outer loop
    vertex 108.41871978062697 132.53034538376946 45.0
    vertex 104.31480826172431 127.12421986708026 0.0
    vertex 104.31480826172431 127.12421986708026 45.0
  endloop
endfacet
facet normal -0.7964987752707274 0.6046401417307912 1.6044886849921184e-32
  outer loop
    vertex 104.31480826172431 127.12421986708026 0.0
    vertex 108.41871978062697 132.53034538376946 45.0
    vertex 108.41871978062697 132.53034538376946 0.0
  endloop
endfacet
endsolid Untitled-5a3f6c82
